<svg width="480" height="131" viewBox="0 0 480 131" fill="none" xmlns="http://www.w3.org/2000/svg">
<g clip-path="url(#clip0_3830_430517)">
<path d="M28.033 4.3044C22.9889 6.48867 18.5612 9.51304 14.8808 13.2842C11.2004 17.0553 8.22999 21.5918 6.08154 26.7631C3.93309 31.9344 2.84953 37.5351 2.84953 43.4158C2.84953 48.4938 3.42868 53.049 4.56829 56.9508C5.7079 60.8526 7.23983 64.3251 9.12673 67.2561C11.0136 70.2058 13.2181 72.7634 15.6842 74.873C18.1315 76.9826 20.6723 78.7562 23.2131 80.1563C24.4648 80.8658 26.2582 81.5565 28.5375 82.2286C30.798 82.882 33.1146 83.4794 35.4312 84.0021C37.7291 84.5249 39.8215 84.9543 41.6523 85.309C44.0063 85.757 44.5854 85.9064 44.6975 85.925C45.5756 86.2984 45.9866 86.9518 45.9866 87.9786C45.9866 88.3893 45.8371 88.7814 45.5008 89.1921C45.2019 89.5655 44.7909 89.7335 44.2305 89.7335H1V108.048H45.7998C48.546 108.048 51.1802 107.618 53.6089 106.778C56.0562 105.938 58.2421 104.65 60.1103 102.951C61.9785 101.252 63.473 99.124 64.5379 96.585C65.6028 94.0647 66.1446 91.0777 66.1446 87.7173C66.1446 83.8901 65.3226 80.6977 63.7159 78.1774C62.1093 75.6945 60.0729 73.6782 57.6816 72.222C55.309 70.7659 52.6561 69.6457 49.8351 68.899C47.0515 68.1709 44.4546 67.5735 42.082 67.1254C39.6907 66.696 37.2247 65.8933 34.7399 64.7358C32.2739 63.5783 29.9947 62.0101 27.9957 60.0499C25.9967 58.0896 24.334 55.7187 23.0636 52.993C21.7932 50.286 21.1393 47.0563 21.1393 43.3972C21.1393 39.7381 21.6998 36.639 22.802 33.6893C23.9043 30.7583 25.4736 28.2007 27.4726 26.0724C29.4529 23.9628 31.9189 22.2826 34.7586 21.0878C37.5983 19.893 40.8303 19.2956 44.3239 19.2956H88.0774V1H44.3612C38.5698 1 33.0772 2.12014 28.033 4.3044Z" fill="#0C4693" stroke="white" stroke-width="1.86932" stroke-miterlimit="10"/>
<path d="M36.6829 24.3549C34.3102 25.2137 32.2365 26.5019 30.4991 28.1821C28.7616 29.8809 27.3792 32.0279 26.4077 34.5482C25.4362 37.0685 24.9318 40.0555 24.9318 43.4159C24.9318 46.963 25.5483 49.9687 26.744 52.377C27.9396 54.7853 29.5463 56.8016 31.5079 58.4071C33.4509 59.994 35.7114 61.2821 38.2522 62.2156C40.7369 63.1303 43.3524 63.8584 45.9679 64.3998C48.3032 64.9226 50.9187 65.5946 53.721 66.4161C56.5046 67.2375 59.1201 68.4883 61.4927 70.1499C63.8654 71.7927 65.883 74.0517 67.5084 76.852C69.115 79.6337 69.9371 83.2928 69.9371 87.736C69.9371 91.2271 69.3579 94.4942 68.1996 97.4252C67.0413 100.356 65.3973 102.914 63.2675 105.042C61.1378 107.17 58.5783 108.851 55.6452 110.027C52.7121 111.222 49.4054 111.819 45.8184 111.819H1V130.133H45.7998C51.5912 130.133 57.0838 129.013 62.1279 126.829C67.1721 124.645 71.5998 121.62 75.2802 117.849C78.9605 114.078 81.9123 109.579 84.0794 104.445C86.2279 99.3108 87.3115 93.6914 87.3115 87.736C87.3115 82.7514 86.6949 78.2335 85.4619 74.3317C84.2289 70.4299 82.5849 66.9575 80.5672 64.0078C78.5495 61.0581 76.2329 58.5004 73.6735 56.3909C71.1327 54.2999 68.5172 52.4704 65.8644 50.9769C64.6127 50.3608 62.8192 49.7074 60.4839 49.054C58.1486 48.4005 55.8321 47.8031 53.5902 47.2804C51.311 46.7577 49.2933 46.2909 47.4998 45.8989C45.725 45.5069 44.7162 45.2828 44.3986 45.1708C44.0249 45.1148 43.7447 44.9094 43.5579 44.5547C43.3337 44.144 43.2216 43.7146 43.2216 43.2852C43.2216 42.7812 43.3711 42.3705 43.6887 42.0344C43.9876 41.6984 44.4173 41.5304 44.9777 41.5304L88.0774 41.3997V23.0854H44.3612C41.615 23.0854 39.0368 23.5148 36.6829 24.3549Z" fill="#0C4693" stroke="white" stroke-width="1.86932" stroke-miterlimit="10"/>
<path d="M127.048 24.971C124.732 26.2218 122.789 27.846 121.275 29.8063C119.762 31.7665 118.623 33.9881 117.857 36.4151C117.109 38.842 116.717 41.2503 116.717 43.5466V63.8771H171.53V45.6935H133.606V44.3307C133.606 43.3973 133.849 42.6878 134.334 42.1651C134.801 41.661 135.25 41.3997 135.623 41.3997H181.469V23.0854H135.231C132.111 23.0854 129.365 23.7202 127.03 24.971H127.048Z" fill="#0C4693" stroke="white" stroke-width="1.86932" stroke-miterlimit="10"/>
<path d="M117.596 4.11771C113.149 6.18997 109.189 9.02765 105.807 12.5934C102.426 16.1405 99.6794 20.4157 97.6804 25.2883C95.6628 30.1609 94.6353 35.4255 94.6353 40.9515V90.2189C94.6353 95.7449 95.6628 101.01 97.6804 105.882C99.6981 110.755 102.426 115.011 105.807 118.577C109.189 122.124 113.149 124.98 117.596 127.053C122.042 129.125 126.712 130.17 131.458 130.17H181.488V111.856H133.55C130.318 111.856 127.404 111.221 124.863 109.952C122.322 108.682 120.136 107.002 118.399 104.967C116.661 102.932 115.298 100.58 114.364 97.9852C113.429 95.3902 112.944 92.7765 112.944 90.2376V40.9329C112.944 38.3939 113.411 35.7803 114.364 33.1853C115.298 30.5903 116.661 28.238 118.399 26.2031C120.136 24.1682 122.304 22.488 124.863 21.2185C127.404 19.949 130.318 19.3142 133.55 19.3142H181.488V1H131.458C126.712 1 122.042 2.04546 117.596 4.11771V4.11771Z" fill="#0C4693" stroke="white" stroke-width="1.86932" stroke-miterlimit="10"/>
<path d="M134.354 88.9688C133.868 88.4461 133.625 87.7367 133.625 86.8032V85.5711H171.55V67.2568H116.736V87.5873C116.736 89.8836 117.11 92.2919 117.876 94.7189C118.623 97.1645 119.782 99.3861 121.295 101.328C122.808 103.288 124.751 104.912 127.068 106.163C129.384 107.414 132.149 108.048 135.269 108.048H181.507V89.7342H135.661C135.269 89.7342 134.839 89.4729 134.372 88.9688H134.354Z" fill="#0C4693" stroke="white" stroke-width="1.86932" stroke-miterlimit="10"/>
<path d="M188.793 41.3997H213.902V130.133H232.229V23.0854H188.793V41.3997Z" fill="#0C4693" stroke="white" stroke-width="1.86932" stroke-miterlimit="10"/>
<path d="M279.177 1H188.793V19.3142H279.177V1Z" fill="#0C4693" stroke="white" stroke-width="1.86932" stroke-miterlimit="10"/>
<path d="M236.003 130.133H254.33V41.3997H279.177V23.0854H236.003V130.133Z" fill="#0C4693" stroke="white" stroke-width="1.86932" stroke-miterlimit="10"/>
<path d="M310.32 104.221C311.46 105.602 313.085 106.592 315.122 107.17C317.102 107.749 319.68 108.029 322.763 108.029H339.764C342.846 108.029 345.424 107.73 347.405 107.17C349.441 106.592 351.066 105.583 352.206 104.221C353.345 102.858 354.149 101.103 354.597 98.9933C355.046 96.9211 355.27 94.3074 355.27 91.2457V1H337.466V86.8025C337.466 87.7546 337.316 88.52 336.999 89.0614C336.737 89.5281 336.233 89.7335 335.448 89.7335H327.078C325.789 89.7335 325.546 89.2481 325.472 89.0801C325.191 88.5387 325.061 87.7733 325.061 86.8025V1H307.257V91.2457C307.257 94.3261 307.481 96.9211 307.929 98.9933C308.378 101.103 309.181 102.876 310.32 104.221Z" fill="#0C4693" stroke="white" stroke-width="1.86932" stroke-miterlimit="10"/>
<path d="M359.062 93.8593C359.062 96.417 358.744 98.844 358.109 101.047C357.474 103.231 356.447 105.154 355.064 106.741C353.682 108.328 351.869 109.579 349.684 110.475C347.479 111.371 344.733 111.819 341.482 111.819H321.081C317.849 111.819 315.084 111.371 312.88 110.475C310.694 109.597 308.882 108.328 307.499 106.741C306.117 105.154 305.089 103.231 304.454 101.047C303.819 98.844 303.501 96.417 303.501 93.8593V1H286.09V90.2002C286.09 104.202 289.097 114.47 295.038 120.705C300.979 126.959 310.358 130.133 322.912 130.133H339.651C346.041 130.133 351.608 129.386 356.204 127.893C360.837 126.399 364.704 123.991 367.712 120.78C370.72 117.569 372.943 113.368 374.363 108.309C375.764 103.268 376.474 97.1824 376.474 90.2189V1H359.062V93.8593V93.8593Z" fill="#0C4693" stroke="white" stroke-width="1.86932" stroke-miterlimit="10"/>
<path d="M475.9 27.0245C473.752 21.8532 470.744 17.2793 466.97 13.4149C463.197 9.55038 458.694 6.48867 453.613 4.3044C448.512 2.12014 443.001 1 437.21 1H385.61V19.5756H437.21C440.797 19.5756 444.047 20.173 446.906 21.3678C449.745 22.5626 452.23 24.2428 454.266 26.3524C456.303 28.4807 457.909 31.057 459.012 34.0254C460.114 37.0124 460.674 40.2981 460.674 43.7892C460.674 47.2803 460.114 50.5661 459.012 53.5531C457.909 56.5215 456.303 59.1164 454.266 61.226C452.23 63.3543 449.745 65.0345 446.906 66.2106C444.066 67.4055 440.797 68.0029 437.21 68.0029H407.711V130.096H426.038V86.5785H437.21C443.001 86.5785 448.512 85.4583 453.613 83.2741C458.694 81.0898 463.178 78.0094 466.914 74.1449C470.651 70.2805 473.64 65.7066 475.844 60.5353C478.03 55.364 479.151 49.7073 479.151 43.7519C479.151 37.7965 478.068 32.1585 475.919 26.9685L475.9 27.0245Z" fill="#0C4693" stroke="white" stroke-width="1.86932" stroke-miterlimit="10"/>
<path d="M451.184 59.1729C454.883 55.7938 456.77 50.6225 456.77 43.8083C456.77 36.9942 454.902 31.8229 451.184 28.4438C447.485 25.0647 442.796 23.3472 437.21 23.3472H385.61V41.7921H437.21C437.434 41.7921 437.733 41.8668 437.957 42.3708C438.181 42.8749 438.312 43.3603 438.312 43.8083C438.312 44.2564 438.2 44.7418 437.957 45.2458C437.733 45.7499 437.434 45.8246 437.21 45.8246H385.61V130.134H403.937V64.2695H437.21C442.796 64.2695 447.504 62.552 451.184 59.1729Z" fill="#0C4693" stroke="white" stroke-width="1.86932" stroke-miterlimit="10"/>
</g>
<defs>
<clipPath id="clip0_3830_430517">
<rect width="480" height="131" fill="white"/>
</clipPath>
</defs>
</svg>
